<svg width="579" height="247" viewBox="0 0 579 247" preserveAspectRatio="xMaxYMax slice" fill="none" xmlns="http://www.w3.org/2000/svg">
<path d="M509.176 121.508C536.14 86.1549 518.663 64.7438 544.129 26.4029C551.873 14.7434 564.772 6.72374 577.584 3C607.044 3 0 3 0 3V244H398.324C398.324 244 393.83 210.638 418.297 177.277C442.765 143.915 482.212 156.862 509.176 121.508Z" fill="white"/>
<path d="M398.5 245C398.5 245 397.786 206 418.298 177.277C438.811 148.554 482.213 156.862 509.176 121.508C536.14 86.1549 518.664 64.7438 544.13 26.4029C551.874 14.7434 564.688 5.22374 577.5 1.5" stroke="#800DF2" stroke-width="3"/>
<line y1="1.5" x2="578" y2="1.5" stroke="#800DF2" stroke-width="3"/>
<line x1="10" y1="245.5" x2="400" y2="245.5" stroke="#800DF2" stroke-width="3"/>
</svg>
